<svg width="567" height="218" viewBox="0 0 567 218" fill="none" xmlns="http://www.w3.org/2000/svg">
<path d="M29.2681 104.972L10.0441 47.1919C8.96412 43.9519 8.10012 41.3239 7.45212 39.3079C6.87612 37.2919 6.48012 35.5639 6.26412 34.1239C5.11212 34.1959 4.03212 34.2319 3.02412 34.2319C2.01612 34.2319 1.00812 34.2679 0.00012207 34.3399V28.3999H28.0801V33.1519C24.4081 33.2959 22.0681 34.0879 21.0601 35.5279C20.1241 36.9679 20.1961 39.7039 21.2761 43.7359C22.5001 48.2719 23.7601 52.4839 25.0561 56.3719C26.3521 60.2599 27.6481 64.3639 28.9441 68.6839C29.8081 71.6359 30.6721 74.4079 31.5361 76.9999C32.4721 79.5199 33.4081 82.4719 34.3441 85.8559H34.4521C34.8121 84.7039 35.2081 83.3359 35.6401 81.7519C36.1441 80.1679 36.6481 78.5479 37.1521 76.8919C37.6561 75.1639 38.1241 73.6159 38.5561 72.2479C38.9881 70.8079 39.3121 69.7279 39.5281 69.0079C41.2561 63.5359 42.9481 58.1719 44.6041 52.9159C46.3321 47.6599 47.8801 42.9079 49.2481 38.6599C50.6161 34.4119 51.6601 30.9559 52.3801 28.2919H57.9961C58.7161 30.9559 59.6521 34.0879 60.8041 37.6879C62.0281 41.2159 63.2521 44.8879 64.4761 48.7039C65.7001 52.4479 66.8881 56.0839 68.0401 59.6119C69.1921 63.0679 70.1641 66.0919 70.9561 68.6839C71.8921 71.6359 72.8281 74.6239 73.7641 77.6479C74.7721 80.5999 75.6721 83.6599 76.4641 86.8279H76.6801C77.3281 84.6679 78.0121 82.3999 78.7321 80.0239C79.5241 77.5759 80.2801 75.0919 81.0001 72.5719C82.4401 68.3959 83.6281 64.7959 84.5641 61.7719C85.5721 58.7479 86.4001 56.1199 87.0481 53.8879C87.6961 51.6559 88.2721 49.6399 88.7761 47.8399C89.3521 46.0399 89.9281 44.2759 90.5041 42.5479C90.9361 41.1799 91.4401 39.7399 92.0161 38.2279C92.5921 36.6439 93.3121 35.2399 94.1761 34.0159C92.8081 34.0879 91.3321 34.1599 89.7481 34.2319C88.2361 34.2319 86.8681 34.2679 85.6441 34.3399V28.3999H108.324V33.1519C106.164 33.3679 104.364 33.8719 102.924 34.6639C101.556 35.4559 100.332 36.8599 99.2521 38.8759C98.1721 40.8199 96.9481 43.7359 95.5801 47.6239C92.4121 57.3439 89.2801 66.9559 86.1841 76.4599C83.1601 85.9639 80.0281 95.4679 76.7881 104.972H71.3881L56.2681 60.7999C55.4761 58.6399 54.7561 56.5159 54.1081 54.4279C53.5321 52.2679 52.9561 50.1799 52.3801 48.1639C51.8761 50.1799 51.3361 52.1959 50.7601 54.2119C50.1841 56.1559 49.5721 58.1359 48.9241 60.1519L34.5601 104.972H29.2681Z" fill="white"/>
<path d="M132.53 105.728C127.49 105.728 122.954 104.576 118.922 102.272C114.962 99.8959 111.83 96.5839 109.526 92.3359C107.222 88.0159 106.07 82.9399 106.07 77.1079C106.07 72.0679 107.186 67.3519 109.418 62.9599C111.722 58.5679 114.926 55.0399 119.03 52.3759C123.134 49.6399 127.886 48.2719 133.286 48.2719C136.31 48.2719 139.154 48.7399 141.818 49.6759C144.554 50.6119 146.966 52.0879 149.054 54.1039C151.214 56.0479 152.906 58.6039 154.13 61.7719C155.354 64.8679 155.966 68.6479 155.966 73.1119L118.814 73.7599C118.814 78.6559 119.354 83.0119 120.434 86.8279C121.586 90.6439 123.422 93.5959 125.942 95.6839C128.462 97.7719 131.738 98.8159 135.77 98.8159C137.714 98.8159 139.766 98.4919 141.926 97.8439C144.158 97.1239 146.246 96.1159 148.19 94.8199C150.206 93.5239 151.898 91.9759 153.266 90.1759L156.614 93.0919C154.454 96.3319 151.97 98.8879 149.162 100.76C146.354 102.56 143.474 103.82 140.522 104.54C137.642 105.332 134.978 105.728 132.53 105.728ZM119.246 68.1439H144.194C144.194 65.4079 143.798 62.9599 143.006 60.7999C142.286 58.5679 141.134 56.8039 139.55 55.5079C137.966 54.2119 135.95 53.5639 133.502 53.5639C129.686 53.5639 126.554 54.7879 124.106 57.2359C121.658 59.6119 120.038 63.2479 119.246 68.1439Z" fill="white"/>
<path d="M165.039 104V99.4639C167.199 99.4639 168.711 98.9599 169.575 97.9519C170.439 96.9439 170.943 95.5399 171.087 93.7399C171.303 91.9399 171.411 89.8519 171.411 87.4759L171.519 65.0119C171.519 63.8599 171.519 62.6359 171.519 61.3399C171.591 59.9719 171.735 58.6399 171.951 57.3439C170.655 57.4159 169.323 57.4879 167.955 57.5599C166.659 57.5599 165.435 57.5959 164.283 57.6679V51.9439C167.523 51.9439 170.043 51.7999 171.843 51.5119C173.715 51.1519 175.119 50.7559 176.055 50.3239C177.063 49.8919 177.819 49.4239 178.323 48.9199H182.211C182.283 49.5679 182.319 50.1799 182.319 50.7559C182.391 51.3319 182.427 51.9439 182.427 52.5919C182.499 53.2399 182.571 54.0679 182.643 55.0759C184.227 53.7799 185.955 52.6279 187.827 51.6199C189.699 50.6119 191.643 49.8199 193.659 49.2439C195.747 48.5959 197.727 48.2719 199.599 48.2719C206.007 48.2719 210.615 50.2159 213.423 54.1039C216.303 57.9919 217.743 64.0759 217.743 72.3559V90.6079C217.743 91.9039 217.707 93.2359 217.635 94.6039C217.563 95.8999 217.455 97.2319 217.311 98.5999C218.463 98.5279 219.615 98.4919 220.767 98.4919C221.991 98.4199 223.107 98.3479 224.115 98.2759V104H200.031V99.4639C202.191 99.4639 203.703 98.9599 204.567 97.9519C205.431 96.9439 205.935 95.5399 206.079 93.7399C206.295 91.9399 206.403 89.8519 206.403 87.4759V72.3559C206.331 66.6679 205.395 62.3839 203.595 59.5039C201.867 56.6239 199.059 55.2199 195.171 55.2919C192.867 55.2919 190.599 55.8679 188.367 57.0199C186.135 58.1719 184.263 59.5759 182.751 61.2319C182.751 61.9519 182.751 62.7439 182.751 63.6079C182.751 64.3999 182.751 65.2279 182.751 66.0919V90.6079C182.751 91.9039 182.715 93.2359 182.643 94.6039C182.571 95.8999 182.463 97.2319 182.319 98.5999C183.471 98.5279 184.623 98.4919 185.775 98.4919C186.999 98.4199 188.115 98.3479 189.123 98.2759V104H165.039Z" fill="white"/>
<path d="M254.052 105.728C249.66 105.728 245.736 104.648 242.28 102.488C238.896 100.256 236.196 97.0879 234.18 92.9839C232.236 88.8799 231.264 84.0559 231.264 78.5119C231.264 72.6079 232.416 67.3879 234.72 62.8519C237.024 58.3159 240.264 54.7519 244.44 52.1599C248.616 49.5679 253.368 48.2719 258.696 48.2719C260.928 48.2719 263.052 48.5599 265.068 49.1359C267.156 49.6399 268.884 50.2519 270.252 50.9719V38.6599C270.252 37.5799 270.288 36.3919 270.36 35.0959C270.432 33.7279 270.54 32.3239 270.684 30.8839C269.388 30.9559 268.056 31.0279 266.688 31.0999C265.32 31.1719 264.096 31.2079 263.016 31.2079V25.4839C266.256 25.4839 268.812 25.3399 270.684 25.0519C272.628 24.6919 274.104 24.2959 275.112 23.8639C276.192 23.4319 276.984 22.9639 277.488 22.4599H281.484V90.6079C281.484 91.6879 281.448 92.9119 281.376 94.2799C281.304 95.6479 281.196 97.0879 281.052 98.5999C282.348 98.5279 283.644 98.4559 284.94 98.3839C286.236 98.3119 287.424 98.2759 288.504 98.2759V104H271.332C271.188 102.992 271.044 102.056 270.9 101.192C270.828 100.328 270.756 99.4639 270.684 98.5999C268.524 100.904 266.04 102.668 263.232 103.892C260.424 105.116 257.364 105.728 254.052 105.728ZM258.48 98.9239C260.712 98.9239 262.872 98.3119 264.96 97.0879C267.12 95.8639 268.884 94.3159 270.252 92.4439C270.252 91.5079 270.252 90.5359 270.252 89.5279C270.252 88.5199 270.252 87.4399 270.252 86.2879V56.9119C268.884 55.9039 267.264 55.1479 265.392 54.6439C263.592 54.0679 261.72 53.7799 259.776 53.7799C256.248 53.7799 253.26 54.8239 250.812 56.9119C248.436 58.9279 246.672 61.6999 245.52 65.2279C244.368 68.7559 243.828 72.7879 243.9 77.3239C244.044 81.2119 244.656 84.8119 245.736 88.1239C246.816 91.4359 248.4 94.0639 250.488 96.0079C252.648 97.9519 255.312 98.9239 258.48 98.9239Z" fill="white"/>
<path d="M304.795 133.268C302.419 133.268 300.367 132.62 298.639 131.324C296.983 130.1 296.155 128.3 296.155 125.924C296.155 124.412 296.623 123.044 297.559 121.82C298.567 120.596 299.863 119.984 301.447 119.984C303.175 119.912 304.399 120.452 305.119 121.604C305.911 122.756 306.307 123.944 306.307 125.168C306.307 125.384 306.307 125.6 306.307 125.816C306.307 126.032 306.271 126.284 306.199 126.572C306.415 126.716 306.739 126.752 307.171 126.68C307.963 126.608 308.827 126.176 309.763 125.384C310.699 124.592 311.563 123.476 312.355 122.036C313.219 120.452 314.191 118.256 315.271 115.448C316.351 112.64 317.539 109.4 318.835 105.728L301.879 70.3039C299.935 66.2719 298.567 63.1399 297.775 60.9079C297.055 58.6039 296.587 56.8039 296.371 55.5079L291.187 55.7239V49.9999H315.055V54.4279H314.839C311.887 54.7159 310.267 55.8319 309.979 57.7759C309.763 59.7199 310.447 62.3839 312.031 65.7679L323.911 91.9039C325.279 88.2319 326.647 84.2359 328.015 79.9159C329.455 75.5959 330.931 71.1679 332.443 66.6319C332.947 65.2639 333.451 63.8239 333.955 62.3119C334.531 60.7279 335.107 59.2879 335.683 57.9919C336.331 56.6959 336.943 55.7959 337.519 55.2919L330.499 55.7239V49.9999H348.211V54.4279C345.691 55.2919 343.711 56.8759 342.271 59.1799C340.903 61.4839 339.571 64.3999 338.275 67.9279L324.775 105.944C322.687 111.92 320.743 116.924 318.943 120.956C317.143 125.06 315.127 128.12 312.895 130.136C310.735 132.224 308.035 133.268 304.795 133.268Z" fill="white"/>
<path d="M357.513 53.7799L354.165 51.2959C354.957 50.2879 355.785 48.8479 356.649 46.9759C357.585 45.1039 358.341 43.0519 358.917 40.8199C359.565 38.5159 359.781 36.2839 359.565 34.1239C359.061 34.3399 358.593 34.4839 358.161 34.5559C357.801 34.6279 357.405 34.6639 356.973 34.6639C355.461 34.6639 354.129 34.1599 352.977 33.1519C351.825 32.0719 351.249 30.6319 351.249 28.8319C351.249 26.7439 351.861 25.0879 353.085 23.8639C354.381 22.5679 355.929 21.9199 357.729 21.9199C360.537 21.9199 362.625 22.9279 363.993 24.9439C365.433 26.8879 366.153 29.3359 366.153 32.2879C366.153 34.2319 365.793 36.4999 365.073 39.0919C364.425 41.6839 363.453 44.2759 362.157 46.8679C360.861 49.3879 359.313 51.6919 357.513 53.7799Z" fill="white"/>
<path d="M394.446 105.728C391.062 105.728 387.93 105.26 385.05 104.324C382.17 103.46 379.866 102.416 378.138 101.192L378.462 104.756H372.738L372.198 86.1799H376.734C376.878 88.8439 377.706 91.2559 379.218 93.4159C380.73 95.5759 382.674 97.2679 385.05 98.4919C387.498 99.7159 390.126 100.328 392.934 100.328C394.59 100.328 396.21 100.076 397.794 99.5719C399.378 98.9959 400.71 98.1679 401.79 97.0879C402.87 95.9359 403.41 94.5319 403.41 92.8759C403.41 91.0759 402.834 89.5999 401.682 88.4479C400.602 87.2239 399.09 86.1439 397.146 85.2079C395.274 84.2719 393.114 83.3359 390.666 82.3999C388.506 81.5359 386.31 80.6359 384.078 79.6999C381.918 78.7639 379.902 77.6479 378.03 76.3519C376.158 75.0559 374.682 73.4719 373.602 71.5999C372.522 69.6559 371.982 67.2799 371.982 64.4719C371.982 62.8159 372.306 61.0519 372.954 59.1799C373.602 57.2359 374.646 55.4719 376.086 53.8879C377.526 52.2319 379.47 50.8999 381.918 49.8919C384.366 48.8119 387.39 48.2719 390.99 48.2719C392.934 48.2719 395.094 48.5959 397.47 49.2439C399.918 49.8919 402.186 51.0079 404.274 52.5919L404.166 48.8119H409.89V67.8199H405.246C405.03 65.2999 404.346 62.9599 403.194 60.7999C402.114 58.6399 400.566 56.8759 398.55 55.5079C396.534 54.1399 394.086 53.4559 391.206 53.4559C388.398 53.4559 386.094 54.1759 384.294 55.6159C382.566 56.9839 381.702 58.7119 381.702 60.7999C381.702 62.8879 382.35 64.5799 383.646 65.8759C385.014 67.1719 386.778 68.2879 388.938 69.2239C391.098 70.1599 393.438 71.0959 395.958 72.0319C398.982 73.2559 401.826 74.5879 404.49 76.0279C407.154 77.4679 409.314 79.2679 410.97 81.4279C412.626 83.5879 413.454 86.3239 413.454 89.6359C413.454 93.2359 412.518 96.2599 410.646 98.7079C408.846 101.084 406.506 102.848 403.626 104C400.746 105.152 397.686 105.728 394.446 105.728Z" fill="white"/>
<path d="M490.179 90.2839C490.179 91.8679 490.143 93.4159 490.071 94.9279C490.071 96.3679 489.963 97.5919 489.747 98.5999C491.115 98.5279 492.519 98.4919 493.959 98.4919C495.471 98.4199 496.803 98.3479 497.955 98.2759V104H469.659V99.2479H470.415C472.575 99.1039 474.267 98.5999 475.491 97.7359C476.715 96.7999 477.579 95.4679 478.083 93.7399C478.587 92.0119 478.839 89.7799 478.839 87.0439V83.5879H447.195V76.6759L485.643 26.6719H490.179V76.0279L500.979 76.1359V83.5879H490.179V90.2839ZM478.623 44.4919L455.295 75.5959L478.839 75.8119V44.4919H478.623Z" fill="white"/>
<path d="M538.449 105.728C532.977 105.728 528.405 104.576 524.733 102.272C521.061 99.8959 518.181 96.7999 516.093 92.9839C514.005 89.0959 512.493 84.8479 511.557 80.2399C510.693 75.6319 510.261 71.0599 510.261 66.5239C510.261 61.9879 510.801 57.3799 511.881 52.6999C513.033 48.0199 514.761 43.7359 517.065 39.8479C519.369 35.8879 522.321 32.7199 525.921 30.3439C529.521 27.8959 533.841 26.6719 538.881 26.6719C544.137 26.6719 548.529 27.8599 552.057 30.2359C555.657 32.6119 558.537 35.7439 560.697 39.6319C562.857 43.4479 564.405 47.6599 565.341 52.2679C566.277 56.8759 566.745 61.4479 566.745 65.9839C566.745 70.4479 566.205 75.0199 565.125 79.6999C564.045 84.3799 562.353 88.6999 560.049 92.6599C557.817 96.5479 554.901 99.7159 551.301 102.164C547.773 104.54 543.489 105.728 538.449 105.728ZM539.097 100.328C542.049 100.328 544.461 99.4279 546.333 97.6279C548.205 95.8279 549.681 93.3799 550.761 90.2839C551.913 87.1879 552.705 83.7319 553.137 79.9159C553.569 76.0999 553.785 72.2119 553.785 68.2519C553.785 63.8599 553.569 59.5399 553.137 55.2919C552.705 50.9719 551.913 47.0479 550.761 43.5199C549.681 39.9919 548.169 37.1839 546.225 35.0959C544.281 33.0079 541.761 31.9639 538.665 31.9639C535.785 31.9639 533.337 32.8639 531.321 34.6639C529.305 36.4639 527.685 38.9119 526.461 42.0079C525.309 45.1039 524.445 48.5959 523.869 52.4839C523.365 56.2999 523.113 60.2239 523.113 64.2559C523.113 67.2799 523.221 70.4479 523.437 73.7599C523.725 77.0719 524.193 80.3119 524.841 83.4799C525.561 86.6479 526.497 89.4919 527.649 92.0119C528.873 94.5319 530.421 96.5479 532.293 98.0599C534.165 99.5719 536.433 100.328 539.097 100.328Z" fill="white"/>
<path d="M12.8837 197.428C11.3877 197.428 10.0957 197.02 9.00775 196.204C7.96508 195.433 7.44375 194.3 7.44375 192.804C7.44375 191.852 7.73841 190.991 8.32775 190.22C8.96241 189.449 9.77841 189.064 10.7757 189.064C11.8637 189.019 12.6344 189.359 13.0877 190.084C13.5864 190.809 13.8357 191.557 13.8357 192.328C13.8357 192.464 13.8357 192.6 13.8357 192.736C13.8357 192.872 13.8131 193.031 13.7677 193.212C13.9037 193.303 14.1077 193.325 14.3797 193.28C14.8784 193.235 15.4224 192.963 16.0117 192.464C16.6011 191.965 17.1451 191.263 17.6437 190.356C18.1877 189.359 18.7997 187.976 19.4797 186.208C20.1597 184.44 20.9077 182.4 21.7237 180.088L11.0477 157.784C9.82375 155.245 8.96241 153.273 8.46375 151.868C8.01041 150.417 7.71575 149.284 7.57975 148.468L4.31575 148.604V145H19.3437V147.788H19.2077C17.3491 147.969 16.3291 148.672 16.1477 149.896C16.0117 151.12 16.4424 152.797 17.4397 154.928L24.9197 171.384C25.7811 169.072 26.6424 166.556 27.5037 163.836C28.4104 161.116 29.3397 158.328 30.2917 155.472C30.6091 154.611 30.9264 153.704 31.2437 152.752C31.6064 151.755 31.9691 150.848 32.3317 150.032C32.7397 149.216 33.1251 148.649 33.4877 148.332L29.0677 148.604V145H40.2197V147.788C38.6331 148.332 37.3864 149.329 36.4797 150.78C35.6184 152.231 34.7797 154.067 33.9637 156.288L25.4637 180.224C24.1491 183.987 22.9251 187.137 21.7917 189.676C20.6584 192.26 19.3891 194.187 17.9837 195.456C16.6237 196.771 14.9237 197.428 12.8837 197.428Z" fill="white"/>
<path d="M59.0807 180.088C55.9074 180.088 53.0514 179.363 50.5127 177.912C48.0194 176.416 46.0474 174.331 44.5967 171.656C43.146 168.936 42.4207 165.74 42.4207 162.068C42.4207 158.895 43.1234 155.925 44.5287 153.16C45.9794 150.395 47.9967 148.173 50.5807 146.496C53.1647 144.773 56.1567 143.912 59.5567 143.912C61.4607 143.912 63.2514 144.207 64.9287 144.796C66.6514 145.385 68.1701 146.315 69.4847 147.584C70.8447 148.808 71.9101 150.417 72.6807 152.412C73.4514 154.361 73.8367 156.741 73.8367 159.552L50.4447 159.96C50.4447 163.043 50.7847 165.785 51.4647 168.188C52.19 170.591 53.346 172.449 54.9327 173.764C56.5194 175.079 58.582 175.736 61.1207 175.736C62.3447 175.736 63.6367 175.532 64.9967 175.124C66.4021 174.671 67.7167 174.036 68.9407 173.22C70.2101 172.404 71.2754 171.429 72.1367 170.296L74.2447 172.132C72.8847 174.172 71.3207 175.781 69.5527 176.96C67.7847 178.093 65.9714 178.887 64.1127 179.34C62.2994 179.839 60.6221 180.088 59.0807 180.088ZM50.7167 156.424H66.4247C66.4247 154.701 66.1754 153.16 65.6767 151.8C65.2234 150.395 64.498 149.284 63.5007 148.468C62.5034 147.652 61.2341 147.244 59.6927 147.244C57.2901 147.244 55.3181 148.015 53.7767 149.556C52.2354 151.052 51.2154 153.341 50.7167 156.424Z" fill="white"/>
<path d="M99.5434 179C99.4527 178.275 99.3847 177.64 99.3394 177.096C99.294 176.552 99.226 175.985 99.1354 175.396C97.594 176.937 95.9394 178.116 94.1714 178.932C92.4034 179.703 90.5674 180.088 88.6634 180.088C85.3994 180.088 82.9287 179.295 81.2514 177.708C79.6194 176.076 78.8034 174.059 78.8034 171.656C78.8034 169.571 79.4154 167.757 80.6394 166.216C81.8634 164.675 83.4727 163.428 85.4674 162.476C87.462 161.479 89.638 160.753 91.9954 160.3C94.3527 159.801 96.6647 159.552 98.9314 159.552V155.54C98.9314 154.089 98.7954 152.752 98.5234 151.528C98.2514 150.259 97.6847 149.239 96.8234 148.468C96.0074 147.652 94.7154 147.244 92.9474 147.244C91.7687 147.199 90.59 147.425 89.4114 147.924C88.2327 148.377 87.326 149.148 86.6914 150.236C87.054 150.599 87.2807 151.029 87.3714 151.528C87.5074 151.981 87.5754 152.412 87.5754 152.82C87.5754 153.455 87.3034 154.18 86.7594 154.996C86.2154 155.767 85.286 156.129 83.9714 156.084C82.8834 156.084 82.0447 155.721 81.4554 154.996C80.9114 154.225 80.6394 153.341 80.6394 152.344C80.6394 150.712 81.2287 149.261 82.4074 147.992C83.6314 146.723 85.286 145.725 87.3714 145C89.4567 144.275 91.7914 143.912 94.3754 143.912C98.274 143.912 101.175 144.932 103.079 146.972C105.029 149.012 106.003 152.231 106.003 156.628C106.003 158.26 106.003 159.824 106.003 161.32C106.003 162.816 105.981 164.312 105.935 165.808C105.935 167.304 105.935 168.891 105.935 170.568C105.935 171.248 105.913 172.019 105.867 172.88C105.822 173.741 105.754 174.648 105.663 175.6C106.434 175.555 107.227 175.509 108.043 175.464C108.859 175.419 109.63 175.396 110.355 175.396V179H99.5434ZM98.9314 162.68C97.4807 162.771 95.9847 162.975 94.4434 163.292C92.9474 163.609 91.5874 164.085 90.3634 164.72C89.1394 165.355 88.142 166.171 87.3714 167.168C86.646 168.165 86.2834 169.367 86.2834 170.772C86.374 172.313 86.8727 173.447 87.7794 174.172C88.7314 174.897 89.842 175.26 91.1114 175.26C92.698 175.26 94.1034 174.965 95.3274 174.376C96.5514 173.741 97.7527 172.88 98.9314 171.792C98.886 171.293 98.8634 170.795 98.8634 170.296C98.8634 169.752 98.8634 169.185 98.8634 168.596C98.8634 168.188 98.8634 167.44 98.8634 166.352C98.9087 165.219 98.9314 163.995 98.9314 162.68Z" fill="white"/>
<path d="M114.745 176.144C116.105 176.144 117.057 175.827 117.601 175.192C118.145 174.557 118.462 173.673 118.553 172.54C118.689 171.407 118.757 170.092 118.757 168.596V154.452C118.757 153.727 118.757 152.956 118.757 152.14C118.802 151.279 118.893 150.44 119.029 149.624C118.258 149.669 117.442 149.715 116.581 149.76C115.72 149.76 114.926 149.783 114.201 149.828V146.224H116.513C118.417 146.224 119.868 146.02 120.865 145.612C121.862 145.204 122.588 144.773 123.041 144.32H125.489C125.58 144.955 125.648 145.839 125.693 146.972C125.738 148.105 125.784 149.375 125.829 150.78C126.69 149.511 127.688 148.377 128.821 147.38C129.954 146.337 131.178 145.499 132.493 144.864C133.853 144.229 135.258 143.912 136.709 143.912C138.114 143.912 139.316 144.297 140.313 145.068C141.356 145.793 141.877 146.995 141.877 148.672C141.877 149.125 141.741 149.647 141.469 150.236C141.242 150.825 140.834 151.347 140.245 151.8C139.701 152.208 138.953 152.412 138.001 152.412C137.049 152.367 136.21 152.004 135.485 151.324C134.805 150.644 134.488 149.715 134.533 148.536C133.445 148.536 132.357 148.876 131.269 149.556C130.181 150.191 129.161 151.052 128.209 152.14C127.302 153.228 126.532 154.407 125.897 155.676V170.568C125.897 171.384 125.874 172.223 125.829 173.084C125.829 173.9 125.761 174.739 125.625 175.6C126.35 175.555 127.098 175.532 127.869 175.532C128.64 175.487 129.342 175.441 129.977 175.396V179H114.745V176.144Z" fill="white"/>
<path d="M159.71 180.088C157.579 180.088 155.607 179.793 153.794 179.204C151.98 178.66 150.53 178.003 149.442 177.232L149.646 179.476H146.042L145.702 167.78H148.558C148.648 169.457 149.17 170.976 150.122 172.336C151.074 173.696 152.298 174.761 153.794 175.532C155.335 176.303 156.99 176.688 158.758 176.688C159.8 176.688 160.82 176.529 161.818 176.212C162.815 175.849 163.654 175.328 164.334 174.648C165.014 173.923 165.354 173.039 165.354 171.996C165.354 170.863 164.991 169.933 164.266 169.208C163.586 168.437 162.634 167.757 161.41 167.168C160.231 166.579 158.871 165.989 157.33 165.4C155.97 164.856 154.587 164.289 153.182 163.7C151.822 163.111 150.552 162.408 149.374 161.592C148.195 160.776 147.266 159.779 146.586 158.6C145.906 157.376 145.566 155.88 145.566 154.112C145.566 153.069 145.77 151.959 146.178 150.78C146.586 149.556 147.243 148.445 148.15 147.448C149.056 146.405 150.28 145.567 151.822 144.932C153.363 144.252 155.267 143.912 157.534 143.912C158.758 143.912 160.118 144.116 161.614 144.524C163.155 144.932 164.583 145.635 165.898 146.632L165.83 144.252H169.434V156.22H166.51C166.374 154.633 165.943 153.16 165.218 151.8C164.538 150.44 163.563 149.329 162.294 148.468C161.024 147.607 159.483 147.176 157.67 147.176C155.902 147.176 154.451 147.629 153.318 148.536C152.23 149.397 151.686 150.485 151.686 151.8C151.686 153.115 152.094 154.18 152.91 154.996C153.771 155.812 154.882 156.515 156.242 157.104C157.602 157.693 159.075 158.283 160.662 158.872C162.566 159.643 164.356 160.481 166.034 161.388C167.711 162.295 169.071 163.428 170.114 164.788C171.156 166.148 171.678 167.871 171.678 169.956C171.678 172.223 171.088 174.127 169.91 175.668C168.776 177.164 167.303 178.275 165.49 179C163.676 179.725 161.75 180.088 159.71 180.088Z" fill="white"/>
<path d="M211.826 180.088C208.608 180.088 205.706 179.363 203.122 177.912C200.538 176.461 198.476 174.444 196.934 171.86C195.438 169.231 194.69 166.216 194.69 162.816C194.69 159.144 195.438 155.903 196.934 153.092C198.476 150.236 200.538 147.992 203.122 146.36C205.706 144.728 208.585 143.912 211.758 143.912C214.977 143.912 217.878 144.66 220.462 146.156C223.046 147.607 225.086 149.647 226.582 152.276C228.124 154.86 228.894 157.852 228.894 161.252C228.894 164.833 228.146 168.052 226.65 170.908C225.154 173.764 223.114 176.008 220.53 177.64C217.992 179.272 215.09 180.088 211.826 180.088ZM212.302 176.688C214.478 176.643 216.178 175.963 217.402 174.648C218.672 173.333 219.578 171.656 220.122 169.616C220.666 167.531 220.938 165.377 220.938 163.156C220.938 161.207 220.757 159.303 220.394 157.444C220.077 155.54 219.556 153.817 218.83 152.276C218.105 150.735 217.153 149.511 215.974 148.604C214.796 147.652 213.368 147.199 211.69 147.244C209.56 147.244 207.814 147.901 206.454 149.216C205.14 150.531 204.165 152.231 203.53 154.316C202.941 156.356 202.646 158.532 202.646 160.844C202.646 163.519 202.986 166.057 203.666 168.46C204.346 170.863 205.389 172.835 206.794 174.376C208.245 175.917 210.081 176.688 212.302 176.688Z" fill="white"/>
<path d="M238.361 143.368C238.361 138.2 239.358 134.256 241.353 131.536C243.393 128.816 246.589 127.456 250.941 127.456C252.301 127.456 253.57 127.683 254.749 128.136C255.928 128.544 256.88 129.156 257.605 129.972C258.33 130.743 258.693 131.672 258.693 132.76C258.693 133.757 258.398 134.596 257.809 135.276C257.265 135.956 256.472 136.319 255.429 136.364C254.25 136.409 253.389 136.069 252.845 135.344C252.346 134.619 252.097 133.893 252.097 133.168C252.097 132.941 252.097 132.692 252.097 132.42C252.142 132.148 252.233 131.876 252.369 131.604C252.052 131.241 251.644 130.992 251.145 130.856C250.692 130.72 250.261 130.652 249.853 130.652C248.674 130.652 247.768 130.992 247.133 131.672C246.498 132.352 246.045 133.213 245.773 134.256C245.501 135.299 245.365 136.364 245.365 137.452V145H254.069V148.536L245.433 148.74L245.501 170.5C245.501 171.316 245.478 172.155 245.433 173.016C245.388 173.877 245.32 174.739 245.229 175.6C245.954 175.555 246.702 175.532 247.473 175.532C248.289 175.487 249.014 175.441 249.649 175.396V179H234.349V176.144C235.709 176.144 236.661 175.827 237.205 175.192C237.749 174.557 238.066 173.673 238.157 172.54C238.293 171.407 238.361 170.092 238.361 168.596V148.808L232.989 148.944V145H238.361V143.368Z" fill="white"/>
<path d="M295.641 179C295.55 178.275 295.482 177.64 295.437 177.096C295.392 176.552 295.324 175.985 295.233 175.396C293.692 176.937 292.037 178.116 290.269 178.932C288.501 179.703 286.665 180.088 284.761 180.088C281.497 180.088 279.026 179.295 277.349 177.708C275.717 176.076 274.901 174.059 274.901 171.656C274.901 169.571 275.513 167.757 276.737 166.216C277.961 164.675 279.57 163.428 281.565 162.476C283.56 161.479 285.736 160.753 288.093 160.3C290.45 159.801 292.762 159.552 295.029 159.552V155.54C295.029 154.089 294.893 152.752 294.621 151.528C294.349 150.259 293.782 149.239 292.921 148.468C292.105 147.652 290.813 147.244 289.045 147.244C287.866 147.199 286.688 147.425 285.509 147.924C284.33 148.377 283.424 149.148 282.789 150.236C283.152 150.599 283.378 151.029 283.469 151.528C283.605 151.981 283.673 152.412 283.673 152.82C283.673 153.455 283.401 154.18 282.857 154.996C282.313 155.767 281.384 156.129 280.069 156.084C278.981 156.084 278.142 155.721 277.553 154.996C277.009 154.225 276.737 153.341 276.737 152.344C276.737 150.712 277.326 149.261 278.505 147.992C279.729 146.723 281.384 145.725 283.469 145C285.554 144.275 287.889 143.912 290.473 143.912C294.372 143.912 297.273 144.932 299.177 146.972C301.126 149.012 302.101 152.231 302.101 156.628C302.101 158.26 302.101 159.824 302.101 161.32C302.101 162.816 302.078 164.312 302.033 165.808C302.033 167.304 302.033 168.891 302.033 170.568C302.033 171.248 302.01 172.019 301.965 172.88C301.92 173.741 301.852 174.648 301.761 175.6C302.532 175.555 303.325 175.509 304.141 175.464C304.957 175.419 305.728 175.396 306.453 175.396V179H295.641ZM295.029 162.68C293.578 162.771 292.082 162.975 290.541 163.292C289.045 163.609 287.685 164.085 286.461 164.72C285.237 165.355 284.24 166.171 283.469 167.168C282.744 168.165 282.381 169.367 282.381 170.772C282.472 172.313 282.97 173.447 283.877 174.172C284.829 174.897 285.94 175.26 287.209 175.26C288.796 175.26 290.201 174.965 291.425 174.376C292.649 173.741 293.85 172.88 295.029 171.792C294.984 171.293 294.961 170.795 294.961 170.296C294.961 169.752 294.961 169.185 294.961 168.596C294.961 168.188 294.961 167.44 294.961 166.352C295.006 165.219 295.029 163.995 295.029 162.68Z" fill="white"/>
<path d="M321.133 179.204L312.497 153.908C312.134 152.911 311.84 152.095 311.613 151.46C311.386 150.78 311.205 150.213 311.069 149.76C310.933 149.261 310.82 148.808 310.729 148.4L307.465 148.604V145H322.493V147.788C320.68 147.833 319.66 148.491 319.433 149.76C319.206 150.984 319.41 152.548 320.045 154.452L322.901 163.564C323.218 164.652 323.536 165.763 323.853 166.896C324.17 167.984 324.488 169.072 324.805 170.16C325.168 169.027 325.53 167.848 325.893 166.624C326.256 165.4 326.664 164.085 327.117 162.68L332.761 145H337.113L343.505 164.448C343.822 165.445 344.14 166.488 344.457 167.576C344.82 168.619 345.16 169.639 345.477 170.636C345.794 169.639 346.112 168.641 346.429 167.644C346.792 166.647 347.109 165.672 347.381 164.72L351.257 153.228C351.62 152.185 351.937 151.279 352.209 150.508C352.526 149.692 352.889 148.967 353.297 148.332L349.353 148.604V145H361.593V147.788C360.505 147.833 359.598 148.06 358.873 148.468C358.148 148.831 357.513 149.307 356.969 149.896C356.47 150.44 356.062 151.075 355.745 151.8C355.428 152.48 355.156 153.16 354.929 153.84L345.817 179.204H341.601L335.753 162C335.526 161.275 335.277 160.504 335.005 159.688C334.733 158.827 334.438 157.943 334.121 157.036C333.849 156.129 333.577 155.268 333.305 154.452C333.078 155.404 332.784 156.424 332.421 157.512C332.104 158.555 331.786 159.575 331.469 160.572C331.152 161.524 330.88 162.363 330.653 163.088L325.145 179.204H321.133Z" fill="white"/>
<path d="M380.155 180.088C376.982 180.088 374.126 179.363 371.587 177.912C369.094 176.416 367.122 174.331 365.671 171.656C364.22 168.936 363.495 165.74 363.495 162.068C363.495 158.895 364.198 155.925 365.603 153.16C367.054 150.395 369.071 148.173 371.655 146.496C374.239 144.773 377.231 143.912 380.631 143.912C382.535 143.912 384.326 144.207 386.003 144.796C387.726 145.385 389.244 146.315 390.559 147.584C391.919 148.808 392.984 150.417 393.755 152.412C394.526 154.361 394.911 156.741 394.911 159.552L371.519 159.96C371.519 163.043 371.859 165.785 372.539 168.188C373.264 170.591 374.42 172.449 376.007 173.764C377.594 175.079 379.656 175.736 382.195 175.736C383.419 175.736 384.711 175.532 386.071 175.124C387.476 174.671 388.791 174.036 390.015 173.22C391.284 172.404 392.35 171.429 393.211 170.296L395.319 172.132C393.959 174.172 392.395 175.781 390.627 176.96C388.859 178.093 387.046 178.887 385.187 179.34C383.374 179.839 381.696 180.088 380.155 180.088ZM371.791 156.424H387.499C387.499 154.701 387.25 153.16 386.751 151.8C386.298 150.395 385.572 149.284 384.575 148.468C383.578 147.652 382.308 147.244 380.767 147.244C378.364 147.244 376.392 148.015 374.851 149.556C373.31 151.052 372.29 153.341 371.791 156.424Z" fill="white"/>
<path d="M415.108 180.088C412.977 180.088 411.005 179.793 409.192 179.204C407.379 178.66 405.928 178.003 404.84 177.232L405.044 179.476H401.44L401.1 167.78H403.956C404.047 169.457 404.568 170.976 405.52 172.336C406.472 173.696 407.696 174.761 409.192 175.532C410.733 176.303 412.388 176.688 414.156 176.688C415.199 176.688 416.219 176.529 417.216 176.212C418.213 175.849 419.052 175.328 419.732 174.648C420.412 173.923 420.752 173.039 420.752 171.996C420.752 170.863 420.389 169.933 419.664 169.208C418.984 168.437 418.032 167.757 416.808 167.168C415.629 166.579 414.269 165.989 412.728 165.4C411.368 164.856 409.985 164.289 408.58 163.7C407.22 163.111 405.951 162.408 404.772 161.592C403.593 160.776 402.664 159.779 401.984 158.6C401.304 157.376 400.964 155.88 400.964 154.112C400.964 153.069 401.168 151.959 401.576 150.78C401.984 149.556 402.641 148.445 403.548 147.448C404.455 146.405 405.679 145.567 407.22 144.932C408.761 144.252 410.665 143.912 412.932 143.912C414.156 143.912 415.516 144.116 417.012 144.524C418.553 144.932 419.981 145.635 421.296 146.632L421.228 144.252H424.832V156.22H421.908C421.772 154.633 421.341 153.16 420.616 151.8C419.936 150.44 418.961 149.329 417.692 148.468C416.423 147.607 414.881 147.176 413.068 147.176C411.3 147.176 409.849 147.629 408.716 148.536C407.628 149.397 407.084 150.485 407.084 151.8C407.084 153.115 407.492 154.18 408.308 154.996C409.169 155.812 410.28 156.515 411.64 157.104C413 157.693 414.473 158.283 416.06 158.872C417.964 159.643 419.755 160.481 421.432 161.388C423.109 162.295 424.469 163.428 425.512 164.788C426.555 166.148 427.076 167.871 427.076 169.956C427.076 172.223 426.487 174.127 425.308 175.668C424.175 177.164 422.701 178.275 420.888 179C419.075 179.725 417.148 180.088 415.108 180.088Z" fill="white"/>
<path d="M449.361 180.088C446.143 180.088 443.241 179.363 440.657 177.912C438.073 176.461 436.011 174.444 434.469 171.86C432.973 169.231 432.225 166.216 432.225 162.816C432.225 159.144 432.973 155.903 434.469 153.092C436.011 150.236 438.073 147.992 440.657 146.36C443.241 144.728 446.12 143.912 449.293 143.912C452.512 143.912 455.413 144.66 457.997 146.156C460.581 147.607 462.621 149.647 464.117 152.276C465.659 154.86 466.429 157.852 466.429 161.252C466.429 164.833 465.681 168.052 464.185 170.908C462.689 173.764 460.649 176.008 458.065 177.64C455.527 179.272 452.625 180.088 449.361 180.088ZM449.837 176.688C452.013 176.643 453.713 175.963 454.937 174.648C456.207 173.333 457.113 171.656 457.657 169.616C458.201 167.531 458.473 165.377 458.473 163.156C458.473 161.207 458.292 159.303 457.929 157.444C457.612 155.54 457.091 153.817 456.365 152.276C455.64 150.735 454.688 149.511 453.509 148.604C452.331 147.652 450.903 147.199 449.225 147.244C447.095 147.244 445.349 147.901 443.989 149.216C442.675 150.531 441.7 152.231 441.065 154.316C440.476 156.356 440.181 158.532 440.181 160.844C440.181 163.519 440.521 166.057 441.201 168.46C441.881 170.863 442.924 172.835 444.329 174.376C445.78 175.917 447.616 176.688 449.837 176.688Z" fill="white"/>
<path d="M471.944 179V176.144C473.304 176.144 474.256 175.827 474.8 175.192C475.344 174.557 475.662 173.673 475.752 172.54C475.888 171.407 475.956 170.092 475.956 168.596V154.452C475.956 153.727 475.956 152.956 475.956 152.14C476.002 151.279 476.092 150.44 476.228 149.624C475.458 149.669 474.642 149.715 473.78 149.76C472.919 149.76 472.126 149.783 471.4 149.828V146.224C473.44 146.224 475.027 146.133 476.16 145.952C477.339 145.725 478.223 145.476 478.812 145.204C479.447 144.932 479.923 144.637 480.24 144.32H482.688C482.779 144.773 482.824 145.317 482.824 145.952C482.87 146.541 482.915 147.176 482.96 147.856C484.366 146.677 485.952 145.725 487.72 145C489.534 144.275 491.279 143.912 492.956 143.912C495.178 143.912 497.014 144.32 498.464 145.136C499.96 145.907 501.139 147.017 502 148.468C503.587 147.153 505.378 146.065 507.372 145.204C509.367 144.343 511.316 143.912 513.22 143.912C517.074 143.912 519.93 145.068 521.788 147.38C523.647 149.647 524.554 153.455 524.508 158.804L524.44 170.568C524.44 171.384 524.418 172.223 524.372 173.084C524.372 173.9 524.304 174.739 524.168 175.6C524.894 175.555 525.642 175.532 526.412 175.532C527.183 175.487 527.886 175.441 528.52 175.396V179H513.56V176.144C514.83 176.144 515.714 175.827 516.212 175.192C516.756 174.557 517.074 173.673 517.164 172.54C517.3 171.407 517.368 170.092 517.368 168.596V158.804C517.323 155.223 516.734 152.593 515.6 150.916C514.467 149.239 512.744 148.4 510.432 148.4C509.118 148.4 507.826 148.695 506.556 149.284C505.287 149.828 504.154 150.531 503.156 151.392C503.383 152.163 503.542 153.024 503.632 153.976C503.768 154.883 503.836 155.835 503.836 156.832C503.791 159.099 503.768 161.388 503.768 163.7C503.768 165.967 503.768 168.256 503.768 170.568C503.768 171.384 503.746 172.223 503.7 173.084C503.655 173.9 503.587 174.739 503.496 175.6C504.222 175.555 504.947 175.532 505.672 175.532C506.443 175.487 507.146 175.441 507.78 175.396V179H492.684V176.144C494.044 176.144 494.974 175.827 495.472 175.192C496.016 174.557 496.334 173.673 496.424 172.54C496.56 171.407 496.628 170.092 496.628 168.596V158.736C496.674 155.155 496.152 152.525 495.064 150.848C494.022 149.125 492.344 148.287 490.032 148.332C488.718 148.332 487.448 148.627 486.224 149.216C485 149.76 483.935 150.463 483.028 151.324C483.028 151.868 483.028 152.435 483.028 153.024C483.074 153.613 483.096 154.248 483.096 154.928V170.568C483.096 171.384 483.074 172.223 483.028 173.084C482.983 173.9 482.915 174.739 482.824 175.6C483.55 175.555 484.275 175.532 485 175.532C485.726 175.487 486.406 175.441 487.04 175.396V179H471.944Z" fill="white"/>
<path d="M549.69 180.088C546.517 180.088 543.661 179.363 541.122 177.912C538.629 176.416 536.657 174.331 535.206 171.656C533.755 168.936 533.03 165.74 533.03 162.068C533.03 158.895 533.733 155.925 535.138 153.16C536.589 150.395 538.606 148.173 541.19 146.496C543.774 144.773 546.766 143.912 550.166 143.912C552.07 143.912 553.861 144.207 555.538 144.796C557.261 145.385 558.779 146.315 560.094 147.584C561.454 148.808 562.519 150.417 563.29 152.412C564.061 154.361 564.446 156.741 564.446 159.552L541.054 159.96C541.054 163.043 541.394 165.785 542.074 168.188C542.799 170.591 543.955 172.449 545.542 173.764C547.129 175.079 549.191 175.736 551.73 175.736C552.954 175.736 554.246 175.532 555.606 175.124C557.011 174.671 558.326 174.036 559.55 173.22C560.819 172.404 561.885 171.429 562.746 170.296L564.854 172.132C563.494 174.172 561.93 175.781 560.162 176.96C558.394 178.093 556.581 178.887 554.722 179.34C552.909 179.839 551.231 180.088 549.69 180.088ZM541.326 156.424H557.034C557.034 154.701 556.785 153.16 556.286 151.8C555.833 150.395 555.107 149.284 554.11 148.468C553.113 147.652 551.843 147.244 550.302 147.244C547.899 147.244 545.927 148.015 544.386 149.556C542.845 151.052 541.825 153.341 541.326 156.424Z" fill="white"/>
<path d="M538.349 79.9981L528.152 65.998L538.349 51.998L548.547 65.998L538.349 79.9981Z" stroke="white"/>
<path d="M533.87 65.9985L538.351 59.8478L542.831 65.9985L538.351 72.1493L533.87 65.9985Z" fill="white"/>
<path d="M254.37 76.8506L258.851 70.6998L263.331 76.8506L258.851 83.0013L254.37 76.8506Z" fill="white"/>
<path d="M208.776 162.198L212.198 157.5L215.621 162.198L212.198 166.897L208.776 162.198Z" fill="white"/>
<path d="M446.276 162.198L449.698 157.5L453.121 162.198L449.698 166.897L446.276 162.198Z" fill="white"/>
<rect width="566" height="2" fill="white"/>
<rect y="216" width="566" height="2" fill="white"/>
</svg>
