<svg width="546" height="124" viewBox="0 0 546 124" fill="none" xmlns="http://www.w3.org/2000/svg">
<path d="M52.9996 49.472C52.9382 45.976 52.5396 43.0627 51.8036 40.732C51.0676 38.4013 49.8409 36.6533 48.1236 35.488C46.4676 34.3227 44.1676 33.7707 41.2236 33.832H34.5996L34.5076 81.672C34.5076 83.328 34.4769 84.8307 34.4156 86.18C34.4156 87.468 34.3542 88.5107 34.2316 89.308C35.3969 89.1853 36.6542 89.124 38.0036 89.124C39.4142 89.0627 40.6716 89.0013 41.7756 88.94V94H18.4076V89.952C20.4316 89.8293 21.8729 89.4 22.7316 88.664C23.5902 87.928 24.1422 86.824 24.3876 85.352C24.6329 83.8187 24.7556 81.948 24.7556 79.74V33.924L17.0276 34.016C13.2862 34.016 10.5569 35.2733 8.83958 37.788C7.12224 40.3027 6.26358 44.1973 6.26358 49.472H1.93958L2.49158 29.6H56.7716L57.3236 49.472H52.9996Z" fill="white"/>
<path d="M64.0928 94V89.952C66.1168 89.8293 67.5581 89.4 68.4168 88.664C69.3368 87.928 69.9194 86.824 70.1648 85.352C70.4101 83.88 70.5328 82.0093 70.5328 79.74V41.468C70.5328 40.1187 70.5634 38.8307 70.6248 37.604C70.6861 36.316 70.7474 35.212 70.8088 34.292C69.7661 34.3533 68.6314 34.4147 67.4048 34.476C66.1781 34.5373 65.0741 34.5987 64.0928 34.66V29.6H86.7248V33.648C84.7621 33.7093 83.3208 34.1387 82.4008 34.936C81.4808 35.672 80.8981 36.776 80.6528 38.248C80.4074 39.6587 80.2848 41.5293 80.2848 43.86V58.856H110.737V41.468C110.737 40.1187 110.767 38.8307 110.829 37.604C110.89 36.316 110.951 35.212 111.013 34.292C109.97 34.3533 108.835 34.4147 107.609 34.476C106.382 34.5373 105.278 34.5987 104.297 34.66V29.6H126.929V33.648C124.966 33.7093 123.525 34.1387 122.605 34.936C121.685 35.672 121.102 36.776 120.857 38.248C120.611 39.6587 120.489 41.5293 120.489 43.86V81.672C120.489 83.328 120.458 84.8307 120.397 86.18C120.397 87.468 120.335 88.5107 120.213 89.308C121.255 89.1853 122.39 89.124 123.617 89.124C124.843 89.0627 125.947 89.0013 126.929 88.94V94H104.297V89.952C106.321 89.8293 107.762 89.4 108.621 88.664C109.541 87.928 110.123 86.824 110.369 85.352C110.614 83.88 110.737 82.0093 110.737 79.74V63.64L80.2848 63.916V81.672C80.2848 83.328 80.2541 84.8307 80.1928 86.18C80.1928 87.468 80.1314 88.5107 80.0088 89.308C81.0514 89.1853 82.1861 89.124 83.4128 89.124C84.7008 89.0627 85.8048 89.0013 86.7248 88.94V94H64.0928Z" fill="white"/>
<path d="M168.519 70.724C168.519 68.0867 168.12 66.1853 167.323 65.02C166.587 63.8547 165.452 63.1493 163.919 62.904C162.385 62.5973 160.484 62.5053 158.215 62.628L152.879 62.812V81.948C152.879 83.604 152.848 85.076 152.787 86.364C152.787 87.5907 152.725 88.6027 152.603 89.4L168.427 89.216C170.819 89.1547 172.965 88.7253 174.867 87.928C176.768 87.0693 178.271 85.628 179.375 83.604C180.479 81.58 181.031 78.82 181.031 75.324H185.079L184.527 94H136.687V89.952C138.711 89.8293 140.152 89.4 141.011 88.664C141.931 87.928 142.513 86.824 142.759 85.352C143.004 83.88 143.127 82.0093 143.127 79.74V41.468C143.127 40.1187 143.157 38.8307 143.219 37.604C143.28 36.316 143.341 35.212 143.403 34.292C142.36 34.3533 141.225 34.4147 139.999 34.476C138.772 34.5373 137.668 34.5987 136.687 34.66V29.6H181.583L182.043 46.252H177.995C177.995 42.756 177.412 40.088 176.247 38.248C175.143 36.408 173.671 35.1813 171.831 34.568C170.052 33.9547 168.12 33.6787 166.035 33.74L159.595 33.924C157.693 33.924 156.252 34.2613 155.271 34.936C154.289 35.5493 153.645 36.592 153.339 38.064C153.032 39.4747 152.879 41.4067 152.879 43.86V58.304H168.059L167.507 50.392H172.567V70.724H168.519Z" fill="white"/>
<path d="M282.575 114.056C280.183 114.056 278.159 113.964 276.503 113.78C274.847 113.596 273.283 113.136 271.811 112.4C270.4 111.725 268.775 110.591 266.935 108.996C264.236 106.543 261.936 104.273 260.035 102.188C258.195 100.164 256.416 98.5387 254.699 97.312C253.043 96.0853 251.141 95.472 248.995 95.472C243.291 95.4107 238.415 94.3987 234.367 92.436C230.38 90.412 227.099 87.7747 224.523 84.524C222.008 81.212 220.168 77.5933 219.003 73.668C217.837 69.6813 217.255 65.7253 217.255 61.8C217.255 57.936 217.899 54.0413 219.187 50.116C220.475 46.1293 222.437 42.48 225.075 39.168C227.773 35.856 231.116 33.188 235.103 31.164C239.151 29.14 243.904 28.128 249.363 28.128C254.944 28.128 259.789 29.14 263.899 31.164C268.008 33.188 271.381 35.8867 274.019 39.26C276.656 42.572 278.619 46.1907 279.907 50.116C281.195 54.0413 281.839 57.936 281.839 61.8C281.839 65.0507 281.348 68.3627 280.367 71.736C279.385 75.1093 277.944 78.3293 276.043 81.396C274.141 84.4013 271.719 87.0387 268.775 89.308C265.892 91.5773 262.488 93.2333 258.563 94.276C260.157 94.276 261.629 94.3987 262.979 94.644C264.328 94.9507 265.677 95.472 267.027 96.208C268.437 97.0053 270.001 98.232 271.719 99.888C273.865 101.851 275.644 103.476 277.055 104.764C278.465 106.113 279.631 107.156 280.551 107.892C281.532 108.628 282.421 109.149 283.219 109.456C284.016 109.824 284.905 110.008 285.887 110.008V114.056H282.575ZM250.191 90.688C253.748 90.688 256.815 89.8907 259.391 88.296C262.028 86.7013 264.175 84.5853 265.831 81.948C267.548 79.2493 268.805 76.3053 269.603 73.116C270.461 69.8653 270.891 66.6453 270.891 63.456C270.891 59.5307 270.4 55.7587 269.419 52.14C268.499 48.46 267.088 45.1787 265.187 42.296C263.347 39.352 261.047 37.052 258.287 35.396C255.527 33.6787 252.337 32.82 248.719 32.82C245.161 32.82 242.064 33.648 239.427 35.304C236.789 36.96 234.643 39.1373 232.987 41.836C231.331 44.4733 230.073 47.4173 229.215 50.668C228.417 53.8573 228.019 57.0773 228.019 60.328C228.019 63.5173 228.448 66.8907 229.307 70.448C230.165 74.0053 231.484 77.3173 233.263 80.384C235.041 83.4507 237.311 85.9347 240.071 87.836C242.892 89.7373 246.265 90.688 250.191 90.688Z" fill="white"/>
<path d="M309.946 94.828L293.57 45.608C292.65 42.848 291.914 40.6093 291.362 38.892C290.871 37.1747 290.534 35.7027 290.35 34.476C289.368 34.5373 288.448 34.568 287.59 34.568C286.731 34.568 285.872 34.5987 285.014 34.66V29.6H308.934V33.648C305.806 33.7707 303.812 34.4453 302.954 35.672C302.156 36.8987 302.218 39.2293 303.138 42.664C304.18 46.528 305.254 50.116 306.358 53.428C307.462 56.74 308.566 60.236 309.67 63.916C310.406 66.4307 311.142 68.792 311.878 71C312.675 73.1467 313.472 75.6613 314.27 78.544H314.362C314.668 77.5627 315.006 76.3973 315.374 75.048C315.803 73.6987 316.232 72.3187 316.662 70.908C317.091 69.436 317.49 68.1173 317.858 66.952C318.226 65.7253 318.502 64.8053 318.686 64.192C320.158 59.5307 321.599 54.9613 323.01 50.484C324.482 46.0067 325.8 41.9587 326.966 38.34C328.131 34.7213 329.02 31.7773 329.634 29.508H334.418C335.031 31.7773 335.828 34.4453 336.81 37.512C337.852 40.5173 338.895 43.6453 339.938 46.896C340.98 50.0853 341.992 53.1827 342.974 56.188C343.955 59.132 344.783 61.708 345.458 63.916C346.255 66.4307 347.052 68.976 347.85 71.552C348.708 74.0667 349.475 76.6733 350.15 79.372H350.334C350.886 77.532 351.468 75.6 352.082 73.576C352.756 71.4907 353.4 69.3747 354.014 67.228C355.24 63.6707 356.252 60.604 357.05 58.028C357.908 55.452 358.614 53.2133 359.166 51.312C359.718 49.4107 360.208 47.6933 360.638 46.16C361.128 44.6267 361.619 43.124 362.11 41.652C362.478 40.4867 362.907 39.26 363.398 37.972C363.888 36.6227 364.502 35.4267 365.238 34.384C364.072 34.4453 362.815 34.5067 361.466 34.568C360.178 34.568 359.012 34.5987 357.97 34.66V29.6H377.29V33.648C375.45 33.832 373.916 34.2613 372.69 34.936C371.524 35.6107 370.482 36.8067 369.562 38.524C368.642 40.18 367.599 42.664 366.434 45.976C363.735 54.256 361.067 62.444 358.43 70.54C355.854 78.636 353.186 86.732 350.426 94.828H345.826L332.946 57.2C332.271 55.36 331.658 53.5507 331.106 51.772C330.615 49.932 330.124 48.1533 329.634 46.436C329.204 48.1533 328.744 49.8707 328.254 51.588C327.763 53.244 327.242 54.9307 326.69 56.648L314.454 94.828H309.946Z" fill="white"/>
<path d="M413.073 70.724C413.073 68.0867 412.675 66.1853 411.877 65.02C411.141 63.8547 410.007 63.1493 408.473 62.904C406.94 62.5973 405.039 62.5053 402.769 62.628L397.433 62.812V81.948C397.433 83.604 397.403 85.076 397.341 86.364C397.341 87.5907 397.28 88.6027 397.157 89.4L412.981 89.216C415.373 89.1547 417.52 88.7253 419.421 87.928C421.323 87.0693 422.825 85.628 423.929 83.604C425.033 81.58 425.585 78.82 425.585 75.324H429.633L429.081 94H381.241V89.952C383.265 89.8293 384.707 89.4 385.565 88.664C386.485 87.928 387.068 86.824 387.313 85.352C387.559 83.88 387.681 82.0093 387.681 79.74V41.468C387.681 40.1187 387.712 38.8307 387.773 37.604C387.835 36.316 387.896 35.212 387.957 34.292C386.915 34.3533 385.78 34.4147 384.553 34.476C383.327 34.5373 382.223 34.5987 381.241 34.66V29.6H426.137L426.597 46.252H422.549C422.549 42.756 421.967 40.088 420.801 38.248C419.697 36.408 418.225 35.1813 416.385 34.568C414.607 33.9547 412.675 33.6787 410.589 33.74L404.149 33.924C402.248 33.924 400.807 34.2613 399.825 34.936C398.844 35.5493 398.2 36.592 397.893 38.064C397.587 39.4747 397.433 41.4067 397.433 43.86V58.304H412.613L412.061 50.392H417.121V70.724H413.073Z" fill="white"/>
<path d="M475.086 49.472C474.779 46.344 473.982 43.5227 472.694 41.008C471.406 38.4933 469.627 36.5 467.358 35.028C465.088 33.4947 462.267 32.7587 458.894 32.82C455.459 32.82 452.73 33.7707 450.706 35.672C448.682 37.5733 447.67 39.8733 447.67 42.572C447.67 44.964 448.344 46.988 449.694 48.644C451.043 50.2387 452.852 51.68 455.122 52.968C457.452 54.256 460.059 55.544 462.942 56.832C465.272 57.8133 467.634 58.9173 470.026 60.144C472.418 61.3707 474.595 62.7813 476.558 64.376C478.52 65.9093 480.084 67.78 481.25 69.988C482.415 72.1347 482.998 74.68 482.998 77.624C482.998 81.0587 482.108 84.1253 480.33 86.824C478.551 89.5227 476.006 91.6387 472.694 93.172C469.443 94.7053 465.487 95.472 460.826 95.472C458.188 95.472 455.398 95.0733 452.454 94.276C449.571 93.4787 446.934 92.344 444.542 90.872L445.002 94.736H439.39L439.022 74.496H443.438C443.928 79.832 445.83 83.88 449.142 86.64C452.515 89.3387 456.532 90.688 461.194 90.688C463.524 90.688 465.64 90.2587 467.542 89.4C469.443 88.5413 470.946 87.3147 472.05 85.72C473.154 84.1253 473.706 82.2547 473.706 80.108C473.706 77.5933 472.939 75.4773 471.406 73.76C469.934 72.0427 468.032 70.5707 465.702 69.344C463.432 68.1173 461.04 66.952 458.526 65.848C456.011 64.744 453.558 63.5787 451.166 62.352C448.835 61.1253 446.719 59.7147 444.818 58.12C442.916 56.5253 441.414 54.6547 440.31 52.508C439.206 50.3 438.654 47.724 438.654 44.78C438.654 43.0627 438.96 41.2533 439.574 39.352C440.187 37.4507 441.23 35.6413 442.702 33.924C444.174 32.2067 446.167 30.8267 448.682 29.784C451.258 28.68 454.478 28.128 458.342 28.128C460.672 28.128 463.279 28.4653 466.162 29.14C469.106 29.8147 471.774 31.0107 474.166 32.728L473.798 28.864H479.318V49.472H475.086Z" fill="white"/>
<path d="M539.683 49.472C539.622 45.976 539.223 43.0627 538.487 40.732C537.751 38.4013 536.524 36.6533 534.807 35.488C533.151 34.3227 530.851 33.7707 527.907 33.832H521.283L521.191 81.672C521.191 83.328 521.16 84.8307 521.099 86.18C521.099 87.468 521.038 88.5107 520.915 89.308C522.08 89.1853 523.338 89.124 524.687 89.124C526.098 89.0627 527.355 89.0013 528.459 88.94V94H505.091V89.952C507.115 89.8293 508.556 89.4 509.415 88.664C510.274 87.928 510.826 86.824 511.071 85.352C511.317 83.8187 511.439 81.948 511.439 79.74V33.924L503.711 34.016C499.97 34.016 497.24 35.2733 495.523 37.788C493.806 40.3027 492.947 44.1973 492.947 49.472H488.623L489.175 29.6H543.455L544.007 49.472H539.683Z" fill="white"/>
<rect width="546" height="2" fill="white"/>
<rect y="122" width="546" height="2" fill="white"/>
<path d="M249.349 76L239.152 62L249.349 48L259.547 62L249.349 76Z" stroke="white"/>
<path d="M244.87 62L249.351 55.8492L253.831 62L249.351 68.1508L244.87 62Z" fill="white"/>
</svg>
