<svg width="1440" height="606" viewBox="0 0 1440 606" preserveAspectRatio="none" fill="none" xmlns="http://www.w3.org/2000/svg">
<path fill-rule="evenodd" clip-rule="evenodd" d="M165.139 67.4894H238.853V301H165.139V67.4894ZM80.4079 301V67.4894H0V0H238.853H246.411H372.434C396.931 0 417.681 4.32624 434.685 12.9787C451.689 21.3428 464.514 33.0236 473.16 48.0213C481.806 62.7305 486.129 79.3144 486.129 97.773C486.129 118.539 480.365 136.853 468.837 152.716C457.597 168.291 441.025 179.395 419.122 186.028L473.841 280.739L576.105 0H673.805L773.183 273.884V0H899.847C924.344 0 945.095 4.32624 962.098 12.9787C979.391 21.6312 992.36 33.6005 1001.01 48.8865C1004.36 54.8086 1007.06 61.0769 1009.11 67.6916V0H1135.77C1160.27 0 1181.02 4.32624 1198.02 12.9787C1215.32 21.6312 1228.28 33.6005 1236.93 48.8865C1240.28 54.8085 1242.98 61.0768 1245.03 67.6914V0H1440V67.922H1329.76V117.674H1427.03V182.135H1329.76V237.078H1440V301V305V368.488H1303.93V605.995H1162.06V368.488H1041.5C1045.33 376.174 1047.61 384.473 1048.34 393.386H894.174C893.692 384.386 888.867 377.637 879.699 373.137C871.013 368.637 859.674 366.387 845.68 366.387C835.065 366.387 826.379 368.215 819.624 371.871C812.868 375.527 809.491 380.73 809.491 387.48C809.491 393.105 813.109 398.026 820.347 402.245C828.068 406.182 837.477 409.698 848.575 412.791C859.674 415.603 876.08 419.26 897.793 423.759C930.123 430.228 956.662 436.696 977.411 443.165C998.642 449.352 1016.74 458.211 1031.7 469.741C1047.14 480.991 1054.86 495.334 1054.86 512.77C1054.86 530.488 1047.14 546.378 1031.7 560.44C1016.74 574.502 994.782 585.61 965.83 593.766C937.361 601.922 903.584 606 864.499 606C805.148 606 756.412 597.844 718.292 581.532C694.111 571.007 677.017 557.652 667.01 541.468V605.995H340.579V368.488H141.864V422.133H292.413V486.593H141.864V605.995H0V301H80.4079ZM1245.03 301V133.804C1242.98 140.202 1240.28 146.362 1236.93 152.284C1228.57 167.281 1215.75 179.395 1198.46 188.624C1181.45 197.565 1160.56 202.035 1135.77 202.035H1093.84V301H1245.03ZM1027.44 305H1009.11V133.803C1007.06 140.202 1004.36 146.362 1001.01 152.284C992.648 167.281 979.823 179.395 962.531 188.624C945.527 197.565 924.632 202.035 899.847 202.035H857.914V301.058C913.243 301.817 957.66 309.953 991.163 325.467C1006.21 332.223 1018.3 340.153 1027.44 349.256V305ZM785.937 305H784.474H773.183H694.987L678.56 255.248H570.485L555.378 301H667.01V360.419C670.955 354.079 676.227 348.194 682.826 342.763C699.232 328.983 721.911 318.577 750.863 311.546C761.985 308.845 773.676 306.663 785.937 305ZM391.032 301L332.662 192.518H323.584V301H340.579H345.974H391.032ZM365.517 134.546H323.584V70.9504H365.517C376.757 70.9504 385.259 73.8345 391.023 79.6028C397.075 85.0827 400.101 92.7258 400.101 102.532C400.101 112.915 397.219 120.846 391.455 126.326C385.691 131.806 377.045 134.546 365.517 134.546ZM657.377 190.355L624.522 91.7163L592.1 190.355H657.377ZM927.514 101.667C927.514 123.586 915.554 134.546 891.633 134.546H857.914V68.3546H891.633C915.554 68.3546 927.514 79.4586 927.514 101.667ZM1127.56 134.546C1151.48 134.546 1163.44 123.586 1163.44 101.667C1163.44 79.4586 1151.48 68.3546 1127.56 68.3546H1093.84V134.546H1127.56ZM662.629 368.921H482.443V418.672H645.297V483.132H482.443V538.074H665.038C660.458 529.665 657.702 520.527 656.77 510.661H808.043C809.49 521.067 814.798 528.66 823.966 533.441C833.134 538.222 844.956 540.613 859.432 540.613C872.461 540.613 883.076 538.785 891.279 535.129C899.965 531.191 904.308 525.848 904.308 519.098C904.308 510.38 897.311 503.63 883.318 498.849C869.324 494.068 846.645 488.725 815.281 482.819C781.986 476.35 754.965 470.163 734.216 464.257C713.95 458.07 696.096 449.211 680.655 437.68C665.697 425.869 658.218 410.541 658.218 391.698C658.218 383.602 659.688 376.009 662.629 368.921Z" fill="black"/>
</svg>
