<svg width="2000" height="360" viewBox="0 0 2000 360" fill="none" xmlns="http://www.w3.org/2000/svg">
<path d="M498 24.0004C330 24.0004 138 147.334 0 110V360H2000V110C1853.5 133.5 1723.5 0 1544 0C1418 0.000244141 1164.5 94.0003 974 94.0003C768 94.0003 666 24.0003 498 24.0004Z" fill="url(#paint0_linear)"/>
<path d="M542 194C346.8 192.4 138 117.334 0 80.0002V360H2000V110.5C1648.5 203.5 1382 32.0002 1176 32.0002C970 32.0002 786 196 542 194Z" fill="url(#paint1_linear)"/>
<defs>
<linearGradient id="paint0_linear" x1="784" y1="0.000248122" x2="792" y2="250" gradientUnits="userSpaceOnUse">
<stop stop-color="#FFC8C8"/>
<stop offset="0.765625" stop-color="#DC005C"/>
</linearGradient>
<linearGradient id="paint1_linear" x1="792" y1="6.00025" x2="796" y2="318" gradientUnits="userSpaceOnUse">
<stop stop-color="#FFC8C8"/>
<stop offset="1" stop-color="#DC005C"/>
</linearGradient>
</defs>
</svg>
