<svg width="2000" height="360" viewBox="0 0 2000 360" fill="none" xmlns="http://www.w3.org/2000/svg">
<g opacity="0.4">
<circle cx="1213" cy="50" r="3" fill="white"/>
<circle cx="1261.5" cy="108.5" r="1.5" fill="white"/>
<circle cx="1531.5" cy="128.5" r="1.5" fill="white"/>
<circle cx="1690.5" cy="242.5" r="1.5" fill="white"/>
<circle cx="1723" cy="164" r="3" fill="white"/>
<circle cx="1905.5" cy="316.5" r="1.5" fill="white"/>
<circle cx="1822.5" cy="100.5" r="1.5" fill="white"/>
<circle cx="1019" cy="112" r="3" fill="white"/>
<circle cx="956.5" cy="50.5" r="1.5" fill="white"/>
<circle cx="1451.5" cy="74.5" r="1.5" fill="white"/>
<circle cx="1665.5" cy="34.5" r="1.5" fill="white"/>
<circle cx="1975.5" cy="34.5" r="1.5" fill="white"/>
<circle cx="1101.5" cy="272.5" r="1.5" fill="white"/>
<circle cx="1357.5" cy="357.5" r="1.5" fill="white"/>
<circle cx="1366.5" cy="199.5" r="1.5" fill="white"/>
<circle cx="369.5" cy="54.5" r="1.5" fill="white"/>
<circle cx="444.5" cy="38.5" r="1.5" fill="white"/>
<circle cx="367" cy="148" r="3" fill="white"/>
<circle cx="59.5" cy="29.5" r="1.5" fill="white"/>
<circle cx="61.5" cy="185.5" r="1.5" fill="white"/>
<circle cx="203.5" cy="70.5" r="1.5" fill="white"/>
<circle cx="521.5" cy="104.5" r="1.5" fill="white"/>
<circle cx="772.5" cy="25.5" r="1.5" fill="white"/>
<circle cx="706.5" cy="128.5" r="1.5" fill="white"/>
<circle cx="975.5" cy="158.5" r="1.5" fill="white"/>
<circle cx="1111.5" cy="40.5" r="1.5" fill="white"/>
<circle cx="1.5" cy="1.5" r="1.5" fill="white"/>
<circle cx="293.5" cy="240.5" r="1.5" fill="white"/>
</g>
</svg>
