<svg width="430" height="800" viewBox="0 0 430 800" fill="none" xmlns="http://www.w3.org/2000/svg">
<g clip-path="url(#clip0_526_2288)">
<path d="M366.175 410.759C449.622 327.312 449.622 192.017 366.175 108.57C282.728 25.1233 147.433 25.1233 63.9863 108.57C-19.4607 192.017 -19.4607 327.312 63.9863 410.759C147.433 494.206 282.728 494.206 366.175 410.759Z" stroke="#D0A570" stroke-width="2.75423" stroke-linecap="round" stroke-dasharray="1.1 13.81"/>
<path d="M20.1172 256.679C20.1172 172.774 73.0854 101.247 147.393 73.7432" stroke="#D0A570" stroke-width="1.37712"/>
<path d="M396.279 185.72C413.351 226.774 415.972 272.792 403.43 315.664" stroke="#D0A570" stroke-width="1.37712"/>
<path d="M341.649 111.42C361.193 127.83 376.708 147.258 388.082 168.449" stroke="#D0A570" stroke-width="1.37712"/>
<path d="M247.901 99.6445C322.291 114.875 378.249 180.729 378.249 259.665C378.249 349.872 305.158 423.002 215.001 423.002C124.843 423.002 51.7522 349.872 51.7522 259.665C51.7522 181.137 107.137 115.553 180.955 99.8869" stroke="#D0A570" stroke-width="3.5805"/>
<path d="M172.619 82.6621L215 151.424L257.381 82.6621" stroke="#D0A570" stroke-width="7.16101"/>
<path d="M215.001 169.337L329.196 354.619H100.806L215.001 169.337ZM215.001 155.698L87.9841 361.78H342.018L215.001 155.698Z" fill="#D0A570"/>
<path d="M214.697 214.782L198.071 241.757H231.324L214.697 214.782Z" fill="#D0A570"/>
<path d="M136.867 294.758C136.867 294.758 158.443 261.757 213.927 261.757C269.411 261.757 292.529 294.758 292.529 294.758" stroke="#D0A570" stroke-width="2.75423"/>
<path d="M292.529 294.76C292.529 294.76 270.953 329.017 215.468 329.017C159.984 329.017 136.867 294.76 136.867 294.76" stroke="#D0A570" stroke-width="2.75423"/>
<path d="M296.807 194.157C298.199 194.157 299.328 193.028 299.328 191.634C299.328 190.241 298.199 189.111 296.807 189.111C295.414 189.111 294.285 190.241 294.285 191.634C294.285 193.028 295.414 194.157 296.807 194.157Z" fill="#D0A570"/>
<path d="M119.211 238.326C119.801 238.326 120.279 237.848 120.279 237.258C120.279 236.667 119.801 236.189 119.211 236.189C118.622 236.189 118.143 236.667 118.143 237.258C118.143 237.848 118.622 238.326 119.211 238.326Z" stroke="#D0A570" stroke-width="2.75423"/>
<path d="M353.077 289.124C353.667 289.124 354.145 288.645 354.145 288.055C354.145 287.465 353.667 286.986 353.077 286.986C352.487 286.986 352.009 287.465 352.009 288.055C352.009 288.645 352.487 289.124 353.077 289.124Z" stroke="#D0A570" stroke-width="2.75423"/>
<path d="M130.904 222.129C131.494 222.129 131.972 221.651 131.972 221.06C131.972 220.47 131.494 219.992 130.904 219.992C130.314 219.992 129.836 220.47 129.836 221.06C129.836 221.651 130.314 222.129 130.904 222.129Z" stroke="#D0A570" stroke-width="2.75423"/>
<path d="M322.6 264.93C323.189 264.93 323.668 264.451 323.668 263.861C323.668 263.271 323.189 262.792 322.6 262.792C322.01 262.792 321.531 263.271 321.531 263.861C321.531 264.451 322.01 264.93 322.6 264.93Z" stroke="#D0A570" stroke-width="2.75423"/>
<path d="M332.862 250.565C333.452 250.565 333.93 250.086 333.93 249.496C333.93 248.906 333.452 248.427 332.862 248.427C332.272 248.427 331.794 248.906 331.794 249.496C331.794 250.086 332.272 250.565 332.862 250.565Z" stroke="#D0A570" stroke-width="2.75423"/>
<path d="M309.595 168.457C310.185 168.457 310.663 167.978 310.663 167.388C310.663 166.798 310.185 166.319 309.595 166.319C309.006 166.319 308.527 166.798 308.527 167.388C308.527 167.978 309.006 168.457 309.595 168.457Z" stroke="#D0A570" stroke-width="2.75423"/>
<path d="M90.048 284.807C90.6379 284.807 91.1161 284.328 91.1161 283.738C91.1161 283.148 90.6379 282.669 90.048 282.669C89.4582 282.669 88.98 283.148 88.98 283.738C88.98 284.328 89.4582 284.807 90.048 284.807Z" stroke="#D0A570" stroke-width="2.75423"/>
<path d="M75.5573 263.889C76.1472 263.889 76.6254 263.411 76.6254 262.821C76.6254 262.23 76.1472 261.752 75.5573 261.752C74.9674 261.752 74.4893 262.23 74.4893 262.821C74.4893 263.411 74.9674 263.889 75.5573 263.889Z" stroke="#D0A570" stroke-width="2.75423"/>
<path d="M167.125 167.392C168.518 167.392 169.647 166.263 169.647 164.87C169.647 163.476 168.518 162.347 167.125 162.347C165.733 162.347 164.604 163.476 164.604 164.87C164.604 166.263 165.733 167.392 167.125 167.392Z" fill="#D0A570"/>
<path d="M151.456 150.508C152.046 150.508 152.525 150.03 152.525 149.44C152.525 148.85 152.046 148.371 151.456 148.371C150.867 148.371 150.388 148.85 150.388 149.44C150.388 150.03 150.867 150.508 151.456 150.508Z" stroke="#D0A570" stroke-width="2.75423"/>
<path d="M143.446 168.457C144.036 168.457 144.514 167.978 144.514 167.388C144.514 166.798 144.036 166.319 143.446 166.319C142.856 166.319 142.378 166.798 142.378 167.388C142.378 167.978 142.856 168.457 143.446 168.457Z" stroke="#D0A570" stroke-width="2.75423"/>
<path d="M285.586 158.221C286.979 158.221 288.107 157.091 288.107 155.698C288.107 154.304 286.979 153.175 285.586 153.175C284.193 153.175 283.064 154.304 283.064 155.698C283.064 157.091 284.193 158.221 285.586 158.221Z" fill="#D0A570"/>
<path d="M202.013 293.625C202.013 284.789 208.042 277.347 216.278 275C214.521 274.499 212.666 274.218 210.745 274.218C199.811 274.218 190.947 282.905 190.947 293.625C190.947 304.344 199.811 313.031 210.745 313.031C212.666 313.031 214.521 312.75 216.278 312.249C208.042 309.902 202.013 302.46 202.013 293.625Z" stroke="#D0A570" stroke-width="2.20339"/>
<path d="M216.278 274.996C208.036 277.342 202.013 284.784 202.013 293.62C202.013 302.455 208.041 309.897 216.278 312.244" stroke="#D0A570" stroke-width="2.20339"/>
<path d="M221.811 274.213C219.89 274.213 218.034 274.494 216.278 274.995C224.52 277.342 230.543 284.784 230.543 293.619C230.543 302.455 224.514 309.897 216.278 312.243C218.034 312.745 219.89 313.026 221.811 313.026C232.745 313.026 241.609 304.339 241.609 293.619C241.609 282.905 232.745 274.213 221.811 274.213Z" stroke="#D0A570" stroke-width="2.20339"/>
<path d="M216.278 312.249C224.52 309.903 230.543 302.461 230.543 293.625C230.543 284.79 224.514 277.348 216.278 275.001" stroke="#D0A570" stroke-width="2.20339"/>
<path d="M214.698 109.778V74.2808" stroke="#D0A570" stroke-width="2.75423"/>
<path d="M115.835 185.72L117.701 188.887L117.757 188.981L117.839 189.052L120.641 191.636L117.839 194.219L117.757 194.291L117.701 194.385L115.835 197.552L113.969 194.385L113.914 194.291L113.831 194.219L111.029 191.636L113.831 189.052L113.914 188.981L113.969 188.887L115.835 185.72Z" stroke="#D0A570" stroke-width="2.75423"/>
<path d="M308.527 219.282L311.357 224.091L311.44 224.234L311.561 224.344L315.817 228.266L311.561 232.188L311.44 232.298L311.357 232.441L308.527 237.25L305.697 232.441L305.615 232.298L305.494 232.188L301.238 228.266L305.494 224.344L305.615 224.234L305.697 224.091L308.527 219.282Z" stroke="#D0A570" stroke-width="2.75423"/>
<path d="M335.13 216.974L336.424 219.172L336.462 219.238L336.517 219.288L338.461 221.083L336.517 222.879L336.462 222.929L336.424 222.995L335.13 225.193L333.836 222.995L333.798 222.929L333.743 222.879L331.799 221.083L333.743 219.288L333.798 219.238L333.836 219.172L335.13 216.974Z" fill="#D0A570"/>
<path d="M214.433 555.656L216.217 558.68L216.272 558.769L216.349 558.84L219.03 561.313L216.349 563.787L216.272 563.858L216.217 563.946L214.433 566.971L212.649 563.946L212.594 563.858L212.517 563.787L209.836 561.313L212.517 558.84L212.594 558.769L212.649 558.68L214.433 555.656Z" fill="#D0A570"/>
<path d="M99.0988 259.274L100.883 262.299L100.938 262.387L101.015 262.458L103.696 264.932L101.015 267.405L100.938 267.477L100.883 267.565L99.0988 270.589L97.315 267.565L97.26 267.477L97.1829 267.405L94.5017 264.932L97.1829 262.458L97.26 262.387L97.315 262.299L99.0988 259.274Z" fill="#D0A570"/>
<path d="M235.591 652.606H192.027L213.806 598.761L235.591 652.606ZM197.73 648.761H229.888L213.806 609.012L197.73 648.761Z" fill="#D0A570"/>
<path d="M357.614 602.987H328.143V599.143H357.614V602.987Z" fill="#D0A570"/>
<path d="M357.614 652.984H328.143V649.139H357.614V652.984Z" fill="#D0A570"/>
<path d="M353.771 627.986H328.143V624.141H353.771V627.986Z" fill="#D0A570"/>
<path d="M94.9094 652.981H99.0605V617.727H118.511V613.882H75.4585V617.727H94.9094V652.981V652.981Z" fill="#D0A570"/>
<path d="M118.511 602.986V599.218H75.4585V602.986H118.511Z" fill="#D0A570"/>
<path d="M176.798 615.905C176.875 624.675 171.111 632.365 159.346 632.365L178.334 652.977H172.878L154.275 632.596H143.743V652.977H139.592V632.596H135.441V628.674H139.592H158.658C168.039 628.674 172.19 623.364 172.267 615.828C172.344 609.521 168.039 602.983 159.12 602.983H139.592V599.138H159.12C170.803 599.138 176.721 607.522 176.798 615.905Z" fill="#D0A570"/>
<path d="M212.825 746.155H216.668V800.001H212.825V746.155Z" fill="#D0A570"/>
<path d="M198.093 746.155H201.935V800.001H198.093V746.155Z" fill="#D0A570"/>
<path d="M227.558 746.155H231.401V800.001H227.558V746.155Z" fill="#D0A570"/>
<path d="M148.731 672.337V676.182H112.521V672.337H148.731Z" fill="#D0A570"/>
<path d="M116.369 726.259H112.521V697.34H144.888V701.185H116.369V726.259Z" fill="#D0A570"/>
<path d="M297.306 726.105H301.458V690.851H323.469V687.006H275.29V690.851H297.301V726.105H297.306Z" fill="#D0A570"/>
<path d="M323.469 676.11V672.342H275.29V676.11H323.469Z" fill="#D0A570"/>
<path d="M201.771 676.187H169.74V672.342H201.771V676.187Z" fill="#D0A570"/>
<path d="M201.771 726.183H169.74V722.338H201.771V726.183Z" fill="#D0A570"/>
<path d="M197.928 701.185H169.74V697.34H197.928V701.185Z" fill="#D0A570"/>
<path d="M236.461 703.801C218.546 703.801 218.546 676.187 236.461 676.187H255.912V672.342H236.461C213.09 672.342 213.09 707.568 236.461 707.568H244.378V703.801H236.461Z" fill="#D0A570"/>
<path d="M242.231 723.032C260.145 723.032 260.145 695.418 242.231 695.418H234.314V691.573H242.231C265.601 691.573 265.601 726.8 242.231 726.8H222.78V723.032H242.231Z" fill="#D0A570"/>
<path fill-rule="evenodd" clip-rule="evenodd" d="M276.436 638.19V652.982H280.587V637.662C279.26 637.953 277.874 638.13 276.436 638.19ZM288.075 634.369H295.886C319.257 634.369 319.257 599.143 295.886 599.143H288.085C289.267 599.991 290.356 600.977 291.345 602.094C291.602 602.385 291.85 602.683 292.089 602.987H295.886C313.801 602.987 313.801 630.601 295.886 630.601H292.022C291.804 630.877 291.578 631.146 291.345 631.41C290.353 632.531 289.26 633.519 288.075 634.369ZM284.84 602.987C282.519 601.049 279.675 599.822 276.436 599.358V602.987H284.84ZM284.751 630.601C281.743 633.075 277.87 634.368 273.402 634.368H272.284V630.601H276.436H284.751Z" fill="#D0A570"/>
<path d="M273.402 630.601C291.317 630.601 291.317 602.987 273.402 602.987H253.951V599.143H273.402C296.773 599.143 296.773 634.369 273.402 634.369H258.103V652.982H253.951V634.369H249.8V630.601H253.951H273.402Z" fill="#D0A570"/>
<path d="M145.153 305.109L122.415 309.246" stroke="#D0A570" stroke-width="1.65254" stroke-miterlimit="10"/>
<path d="M156.318 313.383L113.733 329.93" stroke="#D0A570" stroke-width="1.65254" stroke-miterlimit="10"/>
<path d="M169.234 318.76L101.698 358.41" stroke="#D0A570" stroke-width="1.65254" stroke-miterlimit="10"/>
<path d="M178.136 323.16L108.756 381.957" stroke="#D0A570" stroke-width="1.65254" stroke-miterlimit="10"/>
<path d="M186.604 325.739L56.3828 481.756" stroke="#D0A570" stroke-width="1.65254" stroke-miterlimit="10"/>
<path d="M194.763 327.533L148.203 408.53" stroke="#D0A570" stroke-width="1.65254" stroke-miterlimit="10"/>
<path d="M201.436 328.383L142.511 492.094" stroke="#D0A570" stroke-width="1.65254" stroke-miterlimit="10"/>
<path d="M208.147 328.383L192.181 421.487" stroke="#D0A570" stroke-width="1.65254" stroke-miterlimit="10"/>
<path d="M284.249 305.109L306.992 309.246" stroke="#D0A570" stroke-width="1.65254" stroke-miterlimit="10"/>
<path d="M273.09 313.383L315.675 329.93" stroke="#D0A570" stroke-width="1.65254" stroke-miterlimit="10"/>
<path d="M260.169 318.76L327.705 358.41" stroke="#D0A570" stroke-width="1.65254" stroke-miterlimit="10"/>
<path d="M251.266 323.16L320.646 381.957" stroke="#D0A570" stroke-width="1.65254" stroke-miterlimit="10"/>
<path d="M242.799 325.739L373.02 481.756" stroke="#D0A570" stroke-width="1.65254" stroke-miterlimit="10"/>
<path d="M234.639 327.533L281.199 408.53" stroke="#D0A570" stroke-width="1.65254" stroke-miterlimit="10"/>
<path d="M227.967 328.383L286.892 492.094" stroke="#D0A570" stroke-width="1.65254" stroke-miterlimit="10"/>
<path d="M221.256 328.383L237.222 421.487" stroke="#D0A570" stroke-width="1.65254" stroke-miterlimit="10"/>
<path d="M214.434 328.383V540.646" stroke="#D0A570" stroke-width="1.65254" stroke-miterlimit="10"/>
<path d="M214.434 526.567C222.184 526.567 228.467 520.28 228.467 512.525C228.467 504.771 222.184 498.484 214.434 498.484C206.683 498.484 200.4 504.771 200.4 512.525C200.4 520.28 206.683 526.567 214.434 526.567Z" stroke="#D0A570" stroke-width="1.65254" stroke-miterlimit="10"/>
<path d="M152.453 485.7L141.965 493.699L138.408 481.002L149.232 473.422L152.453 485.7Z" stroke="#D0A570" stroke-width="1.65254" stroke-miterlimit="10"/>
<path d="M290.784 480.769L287.915 493.648L277.015 486.233L280.412 473.459L290.784 480.769Z" stroke="#D0A570" stroke-width="1.65254" stroke-miterlimit="10"/>
<path d="M50.3751 490.615C51.5366 490.615 52.4782 489.673 52.4782 488.51C52.4782 487.348 51.5366 486.406 50.3751 486.406C49.2136 486.406 48.272 487.348 48.272 488.51C48.272 489.673 49.2136 490.615 50.3751 490.615Z" fill="#D0A570"/>
<path d="M44.3521 498.482C45.5136 498.482 46.4552 497.54 46.4552 496.378C46.4552 495.216 45.5136 494.273 44.3521 494.273C43.1906 494.273 42.249 495.216 42.249 496.378C42.249 497.54 43.1906 498.482 44.3521 498.482Z" fill="#D0A570"/>
<path d="M214.434 551.101C215.595 551.101 216.537 550.159 216.537 548.997C216.537 547.835 215.595 546.893 214.434 546.893C213.272 546.893 212.331 547.835 212.331 548.997C212.331 550.159 213.272 551.101 214.434 551.101Z" fill="#D0A570"/>
<path d="M214.434 575.731C215.595 575.731 216.537 574.789 216.537 573.627C216.537 572.465 215.595 571.522 214.434 571.522C213.272 571.522 212.331 572.465 212.331 573.627C212.331 574.789 213.272 575.731 214.434 575.731Z" fill="#D0A570"/>
<path d="M378.309 490.987C379.471 490.987 380.412 490.045 380.412 488.883C380.412 487.72 379.471 486.778 378.309 486.778C377.148 486.778 376.206 487.72 376.206 488.883C376.206 490.045 377.148 490.987 378.309 490.987Z" fill="#D0A570"/>
<path d="M384.794 498.478C385.956 498.478 386.897 497.536 386.897 496.374C386.897 495.212 385.956 494.27 384.794 494.27C383.633 494.27 382.691 495.212 382.691 496.374C382.691 497.536 383.633 498.478 384.794 498.478Z" fill="#D0A570"/>
<path d="M48.2718 423.04C65.7461 423.04 79.9118 408.867 79.9118 391.383C79.9118 373.899 65.7461 359.726 48.2718 359.726C30.7975 359.726 16.6318 373.899 16.6318 391.383C16.6318 408.867 30.7975 423.04 48.2718 423.04Z" fill="black" stroke="#D0A570" stroke-width="1.37712" stroke-miterlimit="10"/>
<path d="M387.415 423.084C404.89 423.084 419.055 408.91 419.055 391.427C419.055 373.943 404.89 359.77 387.415 359.77C369.941 359.77 355.775 373.943 355.775 391.427C355.775 408.91 369.941 423.084 387.415 423.084Z" fill="#D0A570"/>
<path d="M387.416 366.48C401.168 366.48 412.35 377.673 412.35 391.428C412.35 405.182 401.163 416.375 387.416 416.375C373.668 416.375 362.481 405.182 362.481 391.428C362.481 377.673 373.668 366.48 387.416 366.48ZM387.416 363.726C372.121 363.726 359.729 376.131 359.729 391.428C359.729 406.725 372.127 419.13 387.416 419.13C402.704 419.13 415.103 406.725 415.103 391.428C415.103 376.131 402.71 363.726 387.416 363.726Z" fill="black"/>
<path fill-rule="evenodd" clip-rule="evenodd" d="M214.66 75.3983C214.81 75.5103 214.891 75.5651 214.891 75.5651V75.3983H214.66ZM213.148 74.1391C209.103 70.47 199.42 59.4624 199.42 38.1571C199.42 30.7774 200.582 24.5768 202.269 19.4634L213.118 25.7915L205.03 12.761C209.457 3.94294 214.891 0 214.891 0V28.645H214.214L213.148 74.1391ZM214.891 75.3983V75.5651C214.891 75.5651 214.968 75.51 215.111 75.3983H214.891ZM216.12 74.5499L215.574 28.645H214.891V0C214.891 0 230.582 10.4771 230.582 37.408C230.582 59.7157 219.816 71.2479 216.12 74.5499Z" fill="#D0A570"/>
<path d="M37.0861 400.808C28.0626 389.637 27.5892 373.205 33.926 363.174C31.5531 364.044 28.5526 367.129 26.5156 368.776C14.9265 378.146 12.6693 397.668 23.6197 411.219C34.5701 424.775 54.5825 427.232 66.1716 417.862C68.2086 416.215 69.8822 414.27 71.2311 412.133C60.1045 416.226 46.1151 411.979 37.0861 400.808Z" fill="#D0A570"/>
</g>
<defs>
<clipPath id="clip0_526_2288">
<rect width="430" height="800" fill="white"/>
</clipPath>
</defs>
</svg>
